<svg width="55" height="60" viewBox="0 0 55 60" fill="none" xmlns="http://www.w3.org/2000/svg">
<path d="M55 15.3892V51.784C55 52.7886 54.7796 53.7269 54.3389 54.5989C53.8982 55.4709 53.2923 56.2386 52.521 56.902C51.7498 57.5654 50.8464 58.0867 49.8107 58.4658C48.775 58.845 47.6843 59.044 46.5385 59.0629H8.46154C7.29367 59.0629 6.20292 58.8734 5.1893 58.4943C4.17568 58.1152 3.28325 57.5939 2.51202 56.9304C1.74079 56.267 1.13482 55.4993 0.694111 54.6273C0.253405 53.7554 0.0220353 52.8076 0 51.784V15.3892H8.46154V11.7497C8.46154 10.2522 8.79207 8.84004 9.45312 7.51315C10.1142 6.18626 11.0286 5.02997 12.1965 4.04428C13.3644 3.05858 14.7085 2.2814 16.229 1.71273C17.7494 1.14407 19.391 0.850254 21.1538 0.831299C23.4455 0.831299 25.5719 1.32414 27.5331 2.30984C29.4942 1.32414 31.5986 0.831299 33.8462 0.831299C35.5869 0.831299 37.2286 1.11563 38.771 1.6843C40.3135 2.25297 41.6576 3.03963 42.8035 4.04428C43.9493 5.04892 44.8528 6.20521 45.5138 7.51315C46.1749 8.82109 46.5164 10.2333 46.5385 11.7497V15.3892H55ZM42.3077 11.7497C42.3077 10.764 42.0873 9.82574 41.6466 8.93482C41.2059 8.04391 40.6 7.27621 39.8287 6.63172C39.0575 5.98723 38.154 5.46595 37.1184 5.06788C36.0827 4.66981 34.992 4.47078 33.8462 4.47078C32.8546 4.47078 31.9181 4.61294 31.0367 4.89728C31.6757 5.57968 32.1825 6.2526 32.5571 6.91605C32.9317 7.5795 33.2071 8.24294 33.3834 8.90639C33.5597 9.56984 33.6809 10.2428 33.747 10.9252C33.8131 11.6076 33.8462 12.3374 33.8462 13.1145V15.3892H42.3077V11.7497ZM12.6923 15.3892H29.6154V11.7497C29.6154 10.764 29.395 9.82574 28.9543 8.93482C28.5136 8.04391 27.9077 7.27621 27.1364 6.63172C26.3652 5.98723 25.4617 5.46595 24.4261 5.06788C23.3904 4.66981 22.2997 4.47078 21.1538 4.47078C19.986 4.47078 18.8952 4.66033 17.8816 5.03944C16.868 5.41856 15.9756 5.93984 15.2043 6.60328C14.4331 7.26673 13.8271 8.04391 13.3864 8.93482C12.9457 9.82574 12.7143 10.764 12.6923 11.7497V15.3892ZM39.2007 55.4235C38.4515 54.2861 38.0769 53.073 38.0769 51.784V19.0287H4.23077V51.784C4.23077 52.2958 4.34095 52.7697 4.5613 53.2057C4.78165 53.6416 5.07913 54.0207 5.45373 54.343C5.82833 54.6652 6.28005 54.9306 6.80889 55.1391C7.33774 55.3476 7.88862 55.4424 8.46154 55.4235H39.2007ZM50.7692 19.0287H42.3077V51.784C42.3077 52.2958 42.4179 52.7697 42.6382 53.2057C42.8586 53.6416 43.156 54.0207 43.5306 54.343C43.9052 54.6652 44.357 54.9306 44.8858 55.1391C45.4147 55.3476 45.9655 55.4424 46.5385 55.4235C47.1334 55.4235 47.6843 55.3287 48.1911 55.1391C48.6979 54.9496 49.1386 54.6937 49.5132 54.3714C49.8878 54.0492 50.1963 53.6606 50.4387 53.2057C50.6811 52.7507 50.7913 52.2768 50.7692 51.784V19.0287Z" fill="white"/>
</svg>
