<svg width="387" height="88" viewBox="0 0 387 88" fill="none" xmlns="http://www.w3.org/2000/svg">
<path d="M56.9855 16.0518V28.5318H40.042V80H24.4649V28.5318H7.52136V16.0518H56.9855Z" fill="white"/>
<path d="M103.974 41.5582V54.4936H63.8923V41.5582H103.974Z" fill="white"/>
<path d="M140.783 80.6377C136.107 80.6377 131.917 79.8786 128.212 78.3603C124.508 76.8421 121.532 74.5951 119.285 71.6193C117.098 68.6436 115.945 65.0606 115.823 60.8702H132.402C132.645 63.2387 133.465 65.0606 134.862 66.3359C136.259 67.5505 138.081 68.1578 140.328 68.1578C142.635 68.1578 144.457 67.6416 145.793 66.6092C147.129 65.516 147.797 64.0282 147.797 62.1455C147.797 60.5666 147.251 59.2609 146.158 58.2285C145.125 57.1961 143.819 56.3459 142.241 55.6778C140.722 55.0098 138.536 54.2507 135.682 53.4005C131.552 52.1252 128.182 50.8499 125.57 49.5745C122.959 48.2992 120.712 46.4166 118.829 43.9267C116.947 41.4368 116.005 38.1877 116.005 34.1796C116.005 28.2281 118.161 23.5823 122.473 20.2422C126.785 16.8413 132.402 15.1409 139.326 15.1409C146.37 15.1409 152.048 16.8413 156.36 20.2422C160.672 23.5823 162.98 28.2585 163.283 34.2707H146.431C146.309 32.2059 145.55 30.5966 144.154 29.4427C142.757 28.2281 140.965 27.6208 138.779 27.6208C136.896 27.6208 135.378 28.137 134.224 29.1694C133.07 30.1411 132.493 31.5682 132.493 33.4508C132.493 35.5156 133.465 37.125 135.408 38.2788C137.352 39.4327 140.388 40.6777 144.518 42.0137C148.647 43.4105 151.988 44.7465 154.538 46.0219C157.15 47.2972 159.397 49.1494 161.279 51.5786C163.162 54.0078 164.103 57.1354 164.103 60.9613C164.103 64.6051 163.162 67.9148 161.279 70.8906C159.457 73.8663 156.785 76.2348 153.263 77.9959C149.741 79.7571 145.581 80.6377 140.783 80.6377Z" fill="white"/>
<path d="M204.935 28.6229C210.765 28.6229 215.441 30.5662 218.963 34.4529C222.486 38.2788 224.247 43.5623 224.247 50.3033V80H208.761V52.3985C208.761 48.9976 207.88 46.3559 206.119 44.4733C204.358 42.5906 201.989 41.6493 199.014 41.6493C196.038 41.6493 193.669 42.5906 191.908 44.4733C190.147 46.3559 189.267 48.9976 189.267 52.3985V80H173.689V12.5903H189.267V36.0015C190.845 33.7545 193.001 31.963 195.734 30.6269C198.467 29.2909 201.534 28.6229 204.935 28.6229Z" fill="white"/>
<path d="M242.905 23.8859C240.173 23.8859 237.926 23.0965 236.164 21.5175C234.464 19.8778 233.614 17.8737 233.614 15.5053C233.614 13.0761 234.464 11.072 236.164 9.49306C237.926 7.85336 240.173 7.03351 242.905 7.03351C245.577 7.03351 247.764 7.85336 249.464 9.49306C251.225 11.072 252.106 13.0761 252.106 15.5053C252.106 17.8737 251.225 19.8778 249.464 21.5175C247.764 23.0965 245.577 23.8859 242.905 23.8859ZM250.648 29.1694V80H235.071V29.1694H250.648Z" fill="white"/>
<path d="M277.514 37.6412C279.336 34.8476 281.613 32.6614 284.346 31.0824C287.079 29.4427 290.115 28.6229 293.456 28.6229V45.1109H289.174C285.287 45.1109 282.372 45.9611 280.429 47.6616C278.486 49.3012 277.514 52.2163 277.514 56.4066V80H261.937V29.1694H277.514V37.6412Z" fill="white"/>
<path d="M329.231 66.7913V80H321.306C315.658 80 311.255 78.6336 308.098 75.9008C304.94 73.1072 303.361 68.5829 303.361 62.3277V42.1048H297.166V29.1694H303.361V16.7806H318.938V29.1694H329.14V42.1048H318.938V62.5099C318.938 64.0282 319.302 65.1213 320.031 65.7893C320.76 66.4573 321.974 66.7913 323.675 66.7913H329.231Z" fill="white"/>
<path d="M358.587 80.7288C354.153 80.7288 350.206 79.9697 346.744 78.4514C343.283 76.9332 340.55 74.8684 338.546 72.257C336.542 69.5849 335.418 66.6092 335.175 63.3298H350.57C350.752 65.0909 351.572 66.5181 353.03 67.6112C354.487 68.7043 356.279 69.2509 358.404 69.2509C360.348 69.2509 361.836 68.8865 362.868 68.1578C363.961 67.3683 364.508 66.3662 364.508 65.1516C364.508 63.6941 363.749 62.6314 362.23 61.9633C360.712 61.2346 358.253 60.4451 354.852 59.5949C351.208 58.7447 348.171 57.8641 345.742 56.9532C343.313 55.9815 341.218 54.4936 339.457 52.4895C337.696 50.4247 336.815 47.6615 336.815 44.2C336.815 41.2849 337.605 38.6432 339.183 36.2748C340.823 33.8456 343.192 31.9326 346.289 30.5358C349.447 29.1391 353.182 28.4407 357.493 28.4407C363.87 28.4407 368.88 30.0196 372.524 33.1776C376.228 36.3355 378.354 40.5258 378.901 45.7486H364.508C364.265 43.9874 363.475 42.5906 362.139 41.5582C360.864 40.5258 359.163 40.0096 357.038 40.0096C355.216 40.0096 353.819 40.374 352.848 41.1028C351.876 41.7708 351.39 42.7121 351.39 43.9267C351.39 45.3842 352.149 46.4773 353.667 47.2061C355.246 47.9348 357.676 48.6636 360.955 49.3923C364.72 50.364 367.787 51.3357 370.156 52.3074C372.524 53.2183 374.589 54.7365 376.35 56.8621C378.172 58.9269 379.113 61.7204 379.174 65.2427C379.174 68.2185 378.324 70.8906 376.623 73.259C374.984 75.5668 372.585 77.3886 369.427 78.7247C366.33 80.0607 362.716 80.7288 358.587 80.7288Z" fill="white"/>
<path fill-rule="evenodd" clip-rule="evenodd" d="M63.7751 9.26217V34.7686H109.221C109.218 34.5726 109.216 34.3763 109.216 34.1796C109.216 26.3585 112.169 19.6471 118.291 14.893C124.081 10.3367 131.292 8.35123 139.325 8.35123C147.448 8.35123 154.733 10.3212 160.542 14.8929C163.243 16.9902 165.355 19.4709 166.9 22.2664V5.80059H196.056V23.1892C198.878 22.2687 201.854 21.8332 204.935 21.8332C212.435 21.8332 219.018 24.4134 223.977 29.8744C225.778 31.8346 227.2 34.0161 228.282 36.3775V22.3797H228.442C227.374 20.294 226.824 17.9749 226.824 15.5052C226.824 11.2892 228.388 7.45024 231.541 4.52067C231.542 4.51965 231.543 4.51863 231.544 4.51762C234.733 1.55191 238.709 0.243835 242.905 0.243835C247.046 0.243835 250.967 1.55727 254.088 4.52032C257.269 7.41667 258.895 11.2467 258.895 15.5052C258.895 17.9882 258.329 20.3055 257.247 22.3797H284.304V23.5486C287.188 22.3982 290.258 21.8332 293.456 21.8332H296.571V9.99093H325.727V22.3797H335.93V29.5539C338.052 27.3665 340.616 25.6458 343.498 24.3464L343.52 24.3364L343.542 24.3264C347.752 22.4644 352.464 21.651 357.493 21.651C364.959 21.651 371.724 23.5095 376.95 28.0291C382.078 32.4093 384.942 38.2454 385.653 45.0418L386.438 52.5382H381.588C384.641 56.0916 385.883 60.524 385.962 65.1257L385.963 65.1842V65.2427C385.963 69.604 384.688 73.6638 382.145 77.2094C379.641 80.7261 376.149 83.2493 372.093 84.9689C367.985 86.7367 363.43 87.5184 358.587 87.5184C353.375 87.5184 348.474 86.624 344.017 84.6692C341.016 83.353 338.322 81.6495 336.021 79.5234V86.7896H321.306C314.605 86.7896 308.423 85.1614 303.655 81.0348L303.627 81.0107L303.599 80.9861C298.397 76.3848 296.571 69.5759 296.571 62.3277V51.9005H289.174C286.128 51.9005 285.111 52.5865 284.9 52.7712L284.865 52.8016C284.832 52.8552 284.765 52.983 284.684 53.2246C284.496 53.7893 284.304 54.7946 284.304 56.4066V86.7896H201.971V52.3984C201.971 50.1556 201.409 49.3772 201.161 49.1116C200.885 48.8172 200.428 48.4389 199.014 48.4389C197.6 48.4389 197.142 48.8172 196.866 49.1116C196.618 49.3772 196.056 50.1556 196.056 52.3984V86.7896H166.9V74.7094C164.34 78.7687 160.709 81.8637 156.299 84.0687C151.651 86.3931 146.408 87.4273 140.783 87.4273C135.37 87.4273 130.284 86.5472 125.637 84.6428C120.891 82.6978 116.902 79.7304 113.866 75.7108L113.839 75.6752L113.813 75.6393C110.745 71.4629 109.233 66.5756 109.043 61.2832H57.1027V35.3214H46.8316V86.7896H17.6752V35.3214H0.731689V9.26217H63.7751ZM24.4649 28.5317V80H40.042V28.5317H56.9855V16.0518H7.52133V28.5317H24.4649ZM110.763 54.0805H119.802C117.36 52.4629 115.23 50.424 113.413 48.0215C112.287 46.5311 111.414 44.9214 110.763 43.2238V54.0805ZM137.883 54.0805C138.112 54.1543 138.336 54.2273 138.554 54.2995C140.05 54.7954 141.279 55.2549 142.24 55.6778C143.819 56.3458 145.125 57.196 146.158 58.2284C147.251 59.2608 147.797 60.5665 147.797 62.1455C147.797 64.0281 147.129 65.516 145.793 66.6091C144.457 67.6415 142.635 68.1577 140.328 68.1577C138.081 68.1577 136.259 67.5504 134.862 66.3358C133.465 65.0605 132.645 63.2386 132.402 60.8702H115.823C115.895 63.3453 116.327 65.6085 117.119 67.6598C117.668 69.0814 118.39 70.4012 119.285 71.6193C121.532 74.595 124.507 76.842 128.212 78.3603C131.916 79.8785 136.107 80.6376 140.783 80.6376C145.581 80.6376 149.741 79.7571 153.263 77.9959C156.785 76.2347 159.457 73.8663 161.279 70.8905C163.162 67.9148 164.103 64.605 164.103 60.9613C164.103 57.1353 163.162 54.0077 161.279 51.5786C159.397 49.1494 157.15 47.2971 154.538 46.0218C151.988 44.7465 148.647 43.4104 144.518 42.0137C143.519 41.6906 142.584 41.3728 141.713 41.0603C141.108 40.8432 140.534 40.6287 139.991 40.4168C138.083 39.6724 136.555 38.9597 135.408 38.2788C133.465 37.1249 132.493 35.5156 132.493 33.4508C132.493 31.5682 133.07 30.1411 134.224 29.1694C135.378 28.137 136.896 27.6208 138.779 27.6208C140.965 27.6208 142.757 28.2281 144.153 29.4427C145.55 30.5965 146.309 32.2059 146.431 34.2707H163.283C163.157 31.7777 162.687 29.5145 161.872 27.481C160.721 24.6103 158.884 22.1973 156.36 20.2421C152.048 16.8413 146.37 15.1409 139.325 15.1409C132.402 15.1409 126.785 16.8413 122.473 20.2421C118.161 23.5823 116.005 28.2281 116.005 34.1796C116.005 38.1877 116.947 41.4367 118.829 43.9267C120.712 46.4166 122.959 48.2992 125.57 49.5745C128.182 50.8498 131.552 52.1251 135.682 53.4005C136.466 53.634 137.2 53.8607 137.883 54.0805ZM159.598 41.0603H166.9V47.7547C166.817 47.6423 166.732 47.5305 166.646 47.4194C164.657 44.8536 162.305 42.7136 159.598 41.0603ZM248.371 22.3797C248.755 22.1247 249.12 21.8373 249.464 21.5175C251.225 19.8778 252.106 17.8737 252.106 15.5052C252.106 13.0761 251.225 11.072 249.464 9.49302C247.764 7.85332 245.577 7.03347 242.905 7.03347C240.173 7.03347 237.926 7.85332 236.164 9.49302C234.464 11.072 233.614 13.0761 233.614 15.5052C233.614 17.8737 234.464 19.8778 236.164 21.5175C236.521 21.8373 236.898 22.1247 237.294 22.3797C238.856 23.3839 240.726 23.8859 242.905 23.8859C245.036 23.8859 246.858 23.3839 248.371 22.3797ZM235.071 29.1694V80H250.648V29.1694H235.071ZM284.887 52.7702C284.887 52.7704 284.884 52.7749 284.877 52.7829C284.884 52.7739 284.887 52.77 284.887 52.7702ZM303.361 42.1048V62.3277C303.361 68.5828 304.94 73.1072 308.098 75.9007C311.255 78.6336 315.658 80 321.306 80H329.231V66.7913H323.675C321.974 66.7913 320.76 66.4573 320.031 65.7893C319.302 65.1212 318.938 64.0281 318.938 62.5099V42.1048H329.14V29.1694H318.938V16.7806H303.361V29.1694H297.166V42.1048H303.361ZM286.666 29.9171C285.87 30.2437 285.096 30.6321 284.346 31.0824C284.332 31.0905 284.318 31.0987 284.304 31.107C281.59 32.684 279.327 34.8621 277.514 37.6411V29.1694H261.937V80H277.514V56.4066C277.514 52.2162 278.486 49.3012 280.429 47.6615C282.372 45.9611 285.287 45.1109 289.174 45.1109H293.456V28.6228C292.399 28.6228 291.372 28.7049 290.377 28.869C289.089 29.0812 287.852 29.4306 286.666 29.9171ZM325.727 48.8944V60.0017H328.121L327.864 56.5401H333.996C332.159 54.2624 331.042 51.6554 330.479 48.8944H325.727ZM344.795 56.5401C345.105 56.6868 345.421 56.8245 345.742 56.9531C347.148 57.4803 348.757 57.9974 350.57 58.5043C351.89 58.8732 353.317 59.2367 354.852 59.5949C355.642 59.7924 356.381 59.9867 357.07 60.1777C359.345 60.8087 361.065 61.4039 362.23 61.9633C363.749 62.6313 364.508 63.6941 364.508 65.1516C364.508 66.3662 363.961 67.3682 362.868 68.1577C361.836 68.8865 360.348 69.2509 358.404 69.2509C356.279 69.2509 354.487 68.7043 353.03 67.6112C352.303 67.0661 351.735 66.4381 351.325 65.727C350.913 65.0119 350.662 64.2128 350.57 63.3297H335.175C335.264 64.5238 335.469 65.6777 335.791 66.7913C335.862 67.0369 335.939 67.2806 336.021 67.5223C336.325 68.4147 336.707 69.2804 337.166 70.1194C337.567 70.8523 338.027 71.5648 338.546 72.257C340.55 74.8683 343.283 76.9331 346.744 78.4514C350.206 79.9696 354.153 80.7287 358.587 80.7287C362.716 80.7287 366.33 80.0607 369.427 78.7247C372.585 77.3886 374.983 75.5667 376.623 73.259C378.324 70.8905 379.174 68.2185 379.174 65.2427C379.113 61.7204 378.172 58.9268 376.35 56.862C374.73 54.9069 372.853 53.4657 370.719 52.5382C370.533 52.4573 370.345 52.3804 370.155 52.3073C368.581 51.6615 366.699 51.0157 364.508 50.3699C363.402 50.0441 362.218 49.7182 360.955 49.3923C359.902 49.1584 358.937 48.9244 358.06 48.6905C356.204 48.1956 354.74 47.7008 353.667 47.206C352.149 46.4773 351.39 45.3842 351.39 43.9267C351.39 42.7121 351.876 41.7708 352.848 41.1027C353.819 40.374 355.216 40.0096 357.038 40.0096C359.163 40.0096 360.864 40.5258 362.139 41.5582C362.699 41.9909 363.163 42.4875 363.531 43.0482C364.041 43.8254 364.367 44.7255 364.508 45.7485H378.901C378.639 43.2488 378.016 40.9856 377.031 38.9589C375.958 36.7511 374.455 34.824 372.524 33.1775C368.88 30.0196 363.87 28.4406 357.493 28.4406C353.182 28.4406 349.447 29.139 346.289 30.5358C343.192 31.9326 340.823 33.8456 339.183 36.2747C337.604 38.6432 336.815 41.2849 336.815 44.1999C336.815 47.6615 337.696 50.4247 339.457 52.4895C340.985 54.2283 342.764 55.5785 344.795 56.5401ZM218.963 34.4529C215.441 30.5662 210.765 28.6228 204.935 28.6228C201.667 28.6228 198.707 29.2396 196.056 30.4733C195.948 30.5235 195.841 30.5747 195.734 30.6269C193.001 31.9629 190.845 33.7545 189.266 36.0014V12.5902H173.689V80H189.266V52.3984C189.266 48.9976 190.147 46.3558 191.908 44.4732C193.669 42.5906 196.038 41.6493 199.014 41.6493C201.989 41.6493 204.358 42.5906 206.119 44.4732C207.88 46.3558 208.761 48.9976 208.761 52.3984V80H224.247V50.3032C224.247 43.5623 222.486 38.2788 218.963 34.4529ZM103.974 41.5582H63.8923V54.4936H103.974V41.5582Z" fill="url(#paint0_linear)"/>
<defs>
<linearGradient id="paint0_linear" x1="12.343" y1="47.8963" x2="423.116" y2="47.8963" gradientUnits="userSpaceOnUse">
<stop stop-color="#CD680B"/>
<stop offset="0.265625" stop-color="#FF800B" stop-opacity="0.76"/>
<stop offset="0.682292" stop-color="#DD700B" stop-opacity="0.1"/>
<stop offset="1" stop-color="#CD680B" stop-opacity="0"/>
</linearGradient>
</defs>
</svg>
